<?xml version="1.0" standalone="no"?>
<!DOCTYPE svg PUBLIC "-//W3C//DTD SVG 20010904//EN"
 "http://www.w3.org/TR/2001/REC-SVG-20010904/DTD/svg10.dtd">
<svg version="1.0" xmlns="http://www.w3.org/2000/svg"
 width="1200.000000pt" height="1200.000000pt" viewBox="0 0 1200.000000 1200.000000"
 preserveAspectRatio="xMidYMid meet">
<metadata>
Created by potrace 1.14, written by Peter Selinger 2001-2017
</metadata>
<g transform="translate(0.000000,1200.000000) scale(0.100000,-0.100000)"
fill="#000000" stroke="none">
<path d="M5775 9860 c-3 -5 -4 -10 0 -10 3 0 1 -9 -5 -20 -6 -11 -17 -20 -25
-20 -8 0 -15 -4 -15 -9 0 -4 -13 -22 -29 -38 -39 -41 -81 -115 -85 -150 -2
-15 -5 -30 -6 -33 -1 -3 -3 -79 -4 -170 -1 -191 11 -177 -126 -148 -47 10
-110 23 -140 28 -30 5 -77 14 -105 20 -56 12 -98 20 -135 25 -14 2 -38 7 -55
10 -16 3 -39 8 -50 9 -11 2 -31 7 -45 10 -14 3 -38 8 -55 10 -16 3 -39 7 -50
9 -19 4 -99 16 -120 18 -5 1 -20 5 -31 10 -12 4 -73 17 -135 28 -109 20 -131
25 -181 36 -13 3 -43 8 -66 11 -24 3 -55 9 -69 15 -13 5 -29 7 -34 3 -5 -3
-14 -2 -21 2 -7 4 -24 9 -38 10 -14 1 -38 5 -55 9 -16 3 -84 17 -150 30 l-120
25 -28 -33 c-15 -17 -76 -106 -135 -197 -59 -91 -110 -167 -114 -168 -5 -2 -6
-8 -2 -13 3 -5 -2 -12 -10 -15 -9 -3 -13 -10 -11 -15 3 -4 -3 -17 -14 -28 -11
-11 -17 -22 -14 -25 4 -3 1 -6 -5 -6 -6 0 -14 -9 -17 -20 -4 -11 -10 -18 -14
-16 -4 3 -8 0 -8 -7 0 -12 -101 -180 -182 -302 -26 -38 -55 -87 -66 -107 -11
-21 -23 -38 -27 -38 -5 0 -8 -5 -8 -11 0 -15 -79 -141 -94 -151 -6 -4 -7 -8
-2 -8 5 0 2 -8 -7 -17 -8 -10 -16 -21 -17 -25 -2 -21 -13 -37 -21 -32 -5 3 -8
2 -7 -3 5 -16 -53 -113 -75 -124 -15 -8 -71 -10 -192 -5 -211 8 -311 14 -350
21 -16 3 -64 8 -105 11 -41 3 -99 9 -127 13 -33 5 -53 4 -53 -2 0 -6 -5 -6
-13 0 -11 10 -87 22 -182 29 -22 2 -58 6 -80 9 -84 12 -111 15 -150 20 -22 2
-58 7 -80 10 -22 3 -58 7 -80 9 -22 2 -40 5 -40 5 0 2 -47 7 -130 15 -122 12
-287 34 -292 40 -11 11 -53 -36 -53 -59 0 -27 -46 -133 -118 -275 -145 -284
-165 -319 -175 -313 -5 3 -7 1 -3 -5 3 -6 -4 -30 -17 -54 -13 -24 -50 -92 -82
-153 -32 -60 -72 -132 -88 -160 -16 -27 -30 -54 -31 -60 -2 -11 -20 -45 -69
-135 -16 -30 -39 -73 -51 -95 -11 -22 -25 -43 -31 -47 -5 -4 -7 -8 -3 -8 4 0
-2 -17 -13 -37 -63 -111 -114 -210 -116 -223 -1 -8 -7 -16 -12 -18 -6 -2 -11
-12 -11 -23 0 -11 -7 -19 -16 -19 -8 0 -13 -4 -10 -9 3 -4 -21 -61 -53 -125
-33 -64 -59 -118 -59 -119 0 -4 -25 -63 -37 -87 -7 -14 -16 -40 -20 -59 -6
-29 -5 -33 10 -28 9 4 74 7 143 7 l127 0 28 60 c15 33 27 62 27 65 0 3 6 13
15 22 9 8 14 21 11 28 -3 8 2 16 10 19 8 3 13 9 12 13 -2 4 15 44 36 88 83
173 91 190 88 198 -1 4 3 7 8 7 6 0 10 5 10 11 0 6 28 68 62 138 33 69 61 132
61 139 0 6 4 12 8 12 4 0 14 18 23 41 9 22 41 91 70 152 173 357 224 466 226
485 1 4 9 15 18 26 9 10 16 19 14 20 -2 0 23 55 54 121 32 66 58 122 59 125
17 56 55 81 55 36 0 -13 7 -29 15 -36 13 -10 11 -18 -15 -55 -17 -24 -30 -48
-30 -54 0 -6 -4 -11 -10 -11 -5 0 -10 -7 -10 -15 0 -8 -4 -15 -8 -15 -5 0 -9
-6 -9 -13 0 -8 -19 -54 -42 -103 -24 -49 -46 -98 -51 -109 -4 -11 -19 -45 -33
-75 -13 -30 -28 -65 -31 -77 -4 -13 -12 -23 -18 -23 -6 0 -9 -3 -6 -6 6 -5
-51 -124 -72 -149 -7 -8 -9 -19 -5 -25 3 -5 2 -10 -3 -10 -5 0 -23 -33 -41
-72 -18 -40 -43 -90 -57 -110 -13 -20 -26 -48 -30 -62 -3 -14 -10 -26 -15 -26
-5 0 -9 -7 -9 -15 0 -9 -11 -33 -25 -55 -14 -22 -23 -40 -19 -40 3 0 -4 -13
-16 -30 -12 -16 -19 -30 -16 -30 2 0 -13 -32 -35 -71 -21 -40 -39 -76 -39 -81
0 -6 -10 -24 -22 -41 -13 -18 -21 -32 -20 -32 6 0 -19 -60 -50 -120 -17 -33
-36 -76 -43 -95 -7 -19 -22 -59 -34 -88 l-21 -53 139 2 139 1 27 71 c16 40 33
75 39 79 6 4 8 8 4 8 -4 0 8 33 26 73 18 41 39 91 46 113 7 21 18 48 23 59 6
11 12 22 12 25 6 22 26 58 39 69 13 11 17 11 20 0 3 -8 6 -125 8 -261 2 -136
6 -250 9 -253 3 -2 131 -6 284 -7 l278 -3 -1 235 c0 129 -1 246 -1 261 l-1 25
-275 0 c-151 -1 -275 0 -275 1 0 1 9 10 19 20 17 16 37 18 148 16 70 -1 163
-4 206 -6 42 -3 80 -1 83 4 3 5 10 7 15 4 5 -3 29 3 54 14 l45 20 0 240 0 240
-32 18 c-26 13 -63 17 -168 19 -74 2 -138 3 -143 3 -17 2 13 85 38 103 6 4 7
8 3 8 -4 0 13 40 37 90 25 49 45 93 45 97 0 5 9 25 20 46 11 20 17 37 14 37
-4 0 -1 6 5 13 6 8 8 17 4 20 -3 4 -2 7 4 7 6 0 11 12 11 26 0 14 4 30 9 35
11 11 10 13 139 -196 41 -66 103 -165 139 -220 89 -137 175 -282 175 -294 0
-6 3 -11 8 -11 4 0 20 -21 37 -48 16 -26 34 -50 40 -54 5 -4 7 -8 3 -8 -4 0 0
-9 10 -20 9 -12 17 -24 17 -28 0 -4 17 -32 36 -62 54 -82 104 -164 105 -170 1
-12 40 -70 47 -70 4 0 7 -5 7 -10 0 -6 11 -27 24 -48 30 -45 80 -134 104 -182
9 -19 20 -37 23 -40 3 -3 9 -12 12 -20 4 -8 22 -42 40 -75 l32 -60 1150 -2
c633 -1 1182 -2 1220 -3 95 -2 95 -2 95 16 0 8 -12 41 -26 72 -15 31 -27 62
-28 67 -2 6 -30 65 -63 132 -34 67 -59 124 -55 127 3 3 0 6 -6 6 -6 0 -13 14
-17 30 -4 17 -11 30 -16 30 -6 0 -8 4 -4 9 3 5 -2 17 -11 25 -8 9 -13 16 -10
16 4 0 -21 54 -54 120 -33 66 -60 123 -61 127 0 5 -9 24 -19 43 -10 19 -37 73
-60 120 -23 47 -46 90 -51 96 -5 6 -6 14 -2 17 3 4 1 7 -5 7 -7 0 -11 3 -10 8
3 10 -142 295 -154 303 -5 3 -9 9 -9 13 3 16 -124 246 -143 258 -6 4 -7 8 -2
8 5 0 1 9 -9 20 -10 11 -19 31 -21 43 -3 34 -42 112 -66 134 -11 10 -32 19
-47 20 -140 9 -186 12 -188 14 -4 3 -22 6 -36 8 -10 1 -7 15 12 54 14 28 37
77 50 107 23 52 37 76 137 230 23 36 49 81 59 100 10 19 21 37 24 40 3 3 17
25 30 50 13 25 30 52 37 61 8 8 14 21 14 27 0 7 5 12 10 12 6 0 9 3 8 8 -1 4
11 28 27 54 33 53 76 78 100 58 8 -7 12 -16 9 -21 -3 -5 -1 -9 4 -9 5 0 21
-28 37 -62 16 -35 41 -84 57 -110 15 -27 24 -48 20 -48 -4 0 -2 -4 4 -8 5 -4
34 -54 63 -112 29 -58 62 -118 71 -135 10 -16 19 -38 19 -47 1 -10 6 -18 12
-18 5 0 8 -4 5 -9 -4 -5 -2 -11 2 -13 5 -1 27 -41 50 -88 23 -47 55 -108 71
-137 16 -28 27 -54 24 -57 -4 -3 0 -6 7 -6 7 0 10 -3 7 -6 -4 -4 2 -19 11 -33
10 -14 38 -64 62 -111 24 -47 50 -96 57 -110 7 -14 13 -31 13 -37 0 -7 3 -13
8 -13 4 0 18 -24 31 -52 14 -29 40 -80 59 -113 19 -33 35 -66 35 -72 0 -7 3
-13 6 -13 3 0 13 -15 20 -32 8 -18 35 -71 60 -118 25 -47 46 -91 47 -98 1 -7
8 -20 15 -29 7 -8 14 -22 15 -31 2 -8 6 -18 11 -21 4 -3 19 -26 31 -51 99
-190 238 -459 246 -477 6 -13 15 -23 19 -23 5 0 6 -4 2 -9 -3 -5 3 -25 14 -43
44 -74 131 -248 135 -270 3 -13 5 -25 6 -28 2 -3 2 -8 1 -12 0 -4 7 -9 17 -11
30 -8 1056 -2 1070 6 7 5 12 4 12 -3 0 -6 4 -8 10 -5 5 3 88 6 185 6 l176 1
-5 32 c-2 17 -5 33 -6 36 -1 3 -3 10 -4 15 -3 23 -37 124 -53 161 -9 21 -18
42 -19 47 -1 4 -3 9 -4 12 -1 3 -3 8 -5 13 -1 4 -10 25 -19 47 -97 220 -137
317 -147 358 -7 26 -16 47 -20 47 -4 0 -5 9 -2 20 6 24 11 24 133 6 226 -33
318 -32 327 5 3 10 9 19 13 19 4 0 11 11 14 25 7 26 58 145 76 178 6 10 8 22
5 27 -4 6 -1 10 4 10 6 0 11 6 11 14 0 8 5 27 12 43 6 15 12 30 12 33 1 3 5
11 9 17 5 7 10 21 12 30 1 10 15 50 30 88 15 39 36 93 47 121 11 29 20 59 22
68 1 8 5 19 9 22 4 4 7 13 7 19 0 7 8 30 17 51 9 22 18 47 20 56 1 9 16 51 33
93 16 41 30 82 30 90 0 34 13 21 100 -106 32 -47 65 -93 72 -101 15 -16 31
-40 54 -83 9 -16 23 -34 30 -38 8 -4 14 -14 14 -22 0 -7 4 -15 8 -17 4 -1 36
-46 72 -98 85 -127 103 -152 118 -169 26 -27 -6 -34 -185 -35 -98 -2 -185 -5
-193 -8 -8 -4 -26 -9 -40 -12 -23 -5 -25 -9 -26 -68 -3 -299 -13 -815 -15
-823 -1 -5 1 -39 6 -75 4 -36 9 -72 10 -80 0 -8 6 -23 11 -33 10 -17 18 -17
123 -6 105 11 493 7 611 -6 83 -10 82 -11 85 257 1 128 3 235 4 237 0 2 8 -2
17 -10 14 -11 26 -31 83 -138 8 -14 19 -29 25 -33 6 -4 7 -8 3 -8 -5 0 5 -19
21 -42 45 -64 112 -178 112 -192 0 -6 7 -3 14 7 7 9 12 28 11 42 -2 14 0 25 4
25 4 0 7 84 6 188 -3 220 -10 301 -34 382 -14 44 -14 43 3 37 10 -4 13 -1 10
7 -3 8 -1 17 5 21 10 5 15 -7 12 -27 0 -5 4 -7 11 -5 14 3 27 -41 21 -71 -3
-12 0 -36 7 -53 11 -26 11 -33 -2 -46 -14 -13 -14 -18 -2 -42 17 -30 19 -381
3 -464 -7 -38 -5 -53 7 -72 16 -24 50 -42 69 -36 28 9 653 7 675 -2 32 -13 99
-16 106 -5 3 4 14 3 26 -3 13 -7 18 -7 14 -1 -11 19 29 23 237 23 195 1 233
-3 223 -20 -6 -10 128 -8 135 2 3 4 21 11 39 13 25 4 37 0 53 -17 21 -22 22
-23 26 -4 2 11 9 23 15 27 7 4 12 15 11 25 -3 29 -16 53 -26 47 -5 -3 -9 7 -9
21 0 15 -12 41 -26 58 -24 29 -25 32 -8 44 15 11 16 13 1 19 -9 3 -19 15 -22
25 -4 11 -14 18 -23 17 -10 -2 -19 8 -25 30 -6 17 -14 32 -18 32 -5 0 -9 6 -9
14 0 7 -7 26 -14 42 -8 15 -13 31 -10 36 3 4 -1 8 -8 8 -7 0 -30 30 -52 67
l-39 66 23 17 c12 9 32 15 43 14 12 -1 28 -3 34 -3 7 -1 12 -4 12 -8 -3 -19 2
-33 11 -33 6 0 10 8 8 17 -3 15 6 18 65 18 37 0 67 -4 67 -8 0 -5 6 -7 13 -4
6 2 21 1 33 -3 22 -9 45 16 51 54 2 11 12 25 22 32 18 13 46 98 37 113 -6 9 8
55 74 241 28 80 63 179 78 220 25 71 26 74 36 48 5 -16 15 -28 21 -28 12 0 75
-70 111 -124 32 -48 85 -146 79 -146 -3 0 0 -10 7 -22 7 -13 12 -26 13 -30 0
-3 3 -10 8 -14 4 -4 7 -17 7 -29 0 -19 -5 -21 -40 -19 l-40 2 0 -195 0 -194
98 1 c187 2 253 0 248 -9 -3 -5 1 -12 10 -15 8 -3 13 -9 10 -14 -4 -7 -194 -7
-313 1 l-53 3 0 -203 0 -203 188 -2 c325 -5 328 -5 362 21 l31 22 41 -32 c36
-29 47 -32 101 -31 33 1 61 3 64 5 6 7 0 332 -6 332 -1 0 -4 24 -6 54 -7 94
-56 220 -150 386 -16 28 -33 59 -39 70 -6 11 -14 22 -17 25 -9 7 -40 69 -38
76 0 4 -4 10 -9 13 -13 9 -157 254 -155 263 2 4 -2 8 -7 8 -6 0 -10 9 -10 19
0 10 -7 21 -15 25 -8 3 -15 9 -15 14 0 5 -16 26 -35 46 -19 21 -35 42 -35 48
0 10 -90 197 -112 233 -7 11 -23 34 -35 52 -13 17 -23 36 -23 42 0 6 -11 27
-25 47 -17 25 -22 41 -15 49 6 7 6 15 0 21 -6 6 -6 15 0 24 10 16 26 6 32 -20
3 -14 7 -20 36 -54 6 -8 12 -20 12 -25 0 -5 6 -16 13 -23 12 -13 27 -39 82
-141 14 -26 41 -72 60 -102 19 -30 35 -57 35 -60 0 -3 9 -15 20 -27 10 -12 17
-25 14 -30 -3 -4 0 -8 5 -8 6 0 10 -3 9 -7 -3 -8 31 -67 105 -184 20 -33 37
-64 37 -69 0 -6 5 -10 10 -10 6 0 10 -8 10 -18 0 -10 4 -22 9 -28 14 -13 111
-176 111 -184 0 -4 7 -13 15 -20 9 -7 13 -15 11 -18 -3 -3 3 -17 14 -32 11
-16 20 -31 20 -36 0 -4 11 -22 25 -40 14 -18 25 -36 25 -39 0 -4 10 -21 22
-37 l21 -31 166 7 c217 9 216 9 216 21 0 14 -48 109 -60 117 -5 4 -6 8 -1 8 4
0 1 11 -8 24 -8 14 -25 41 -36 60 -10 20 -38 65 -60 101 -24 36 -38 70 -34 76
4 7 3 9 -3 6 -5 -3 -20 13 -33 36 -13 23 -34 56 -47 73 -13 17 -23 36 -23 42
0 7 -4 12 -8 12 -8 0 -27 33 -31 55 -1 6 -10 19 -20 30 -10 11 -31 43 -47 70
-15 28 -48 80 -71 117 -24 36 -43 71 -43 76 0 6 -4 12 -9 14 -4 2 -19 22 -32
45 -40 70 -120 206 -144 243 -44 70 -85 150 -78 150 4 0 1 5 -7 10 -8 5 -16
14 -16 20 -1 5 -2 11 -4 13 -1 1 -3 10 -5 19 -4 21 -35 66 -64 92 -12 11 -21
23 -21 28 0 22 -63 98 -86 104 -27 7 -94 -9 -164 -39 -111 -48 -139 -61 -205
-95 -38 -19 -83 -42 -100 -50 -16 -9 -42 -24 -57 -34 -16 -11 -28 -16 -28 -13
0 3 -13 -3 -29 -14 -16 -12 -33 -21 -38 -21 -5 0 -54 -23 -109 -51 -54 -28
-101 -52 -104 -51 -3 0 -16 -5 -30 -10 -31 -12 -70 -13 -79 -2 -3 5 -15 14
-26 20 -11 6 -28 33 -37 59 -34 94 -76 119 -268 154 -104 20 -126 24 -185 37
-16 4 -43 8 -60 10 -16 1 -30 3 -30 4 0 1 -11 4 -25 6 -14 3 -43 10 -65 16
-22 6 -49 12 -60 13 -38 4 -100 16 -130 25 -33 10 -269 58 -325 66 -52 8 -75
12 -75 14 0 2 -35 8 -80 14 -22 3 -51 7 -65 10 -89 17 -262 38 -302 37 -16 -1
-28 3 -28 9 0 5 -6 10 -13 10 -13 0 -107 142 -107 161 0 5 -5 9 -11 9 -5 0 -7
5 -4 10 3 6 1 10 -4 10 -6 0 -11 4 -11 9 0 5 -17 36 -39 68 -32 48 -100 159
-180 295 -17 28 -31 29 -91 5 -29 -12 -36 -14 -69 -21 -14 -3 -27 -9 -30 -14
-3 -4 -26 -16 -51 -26 -25 -10 -53 -22 -62 -27 -33 -17 -63 -34 -68 -39 -15
-15 -88 -49 -94 -43 -3 3 -6 1 -6 -5 0 -17 -134 -100 -175 -108 -5 -1 -12 -3
-15 -4 -14 -5 -69 -12 -95 -12 -40 0 -146 11 -154 16 -3 3 -27 7 -51 11 -112
15 -307 58 -327 71 -13 8 -23 12 -23 9 0 -3 -8 3 -19 14 -17 17 -19 43 -26
247 -4 126 -8 265 -10 309 l-3 79 -158 43 c-86 24 -159 41 -162 38 -3 -3 -11
0 -18 6 -7 6 -23 12 -36 14 -13 2 -34 6 -48 10 -14 3 -30 7 -37 9 -7 1 -15 5
-19 8 -3 4 -12 4 -20 1 -8 -3 -14 0 -14 6 0 6 -6 8 -14 5 -8 -3 -17 0 -21 5
-3 6 -10 9 -14 7 -3 -3 -38 4 -76 15 -76 21 -140 25 -150 9z"/>
<path d="M10115 6740 c-3 -5 -1 -10 4 -10 6 0 11 5 11 10 0 6 -2 10 -4 10 -3
0 -8 -4 -11 -10z"/>
<path d="M10250 6665 c0 -18 46 -42 58 -30 4 4 1 10 -5 12 -7 3 -13 11 -13 19
0 8 -9 14 -20 14 -11 0 -20 -7 -20 -15z"/>
<path d="M10270 6548 c0 -4 5 -19 12 -33 8 -18 14 -22 20 -13 9 16 11 34 1 25
-3 -4 -12 1 -19 11 -7 9 -14 14 -14 10z"/>
<path d="M10384 6505 c-6 -15 2 -35 15 -35 5 0 9 11 9 25 0 27 -15 34 -24 10z"/>
<path d="M10328 6443 c-3 -4 1 -19 7 -31 7 -13 15 -20 17 -15 3 4 -1 19 -7 31
-7 13 -15 20 -17 15z"/>
<path d="M8930 6220 c-6 -3 5 -11 25 -17 22 -7 37 -8 41 -1 3 5 4 12 1 14 -9
9 -55 12 -67 4z"/>
<path d="M9266 6212 c-3 -5 1 -9 9 -9 8 0 15 4 15 9 0 4 -4 8 -9 8 -6 0 -12
-4 -15 -8z"/>
<path d="M8374 5641 c-2 -2 -34 -5 -71 -7 -38 -1 -68 -3 -68 -4 0 -2 -11 -4
-25 -5 -23 -3 -41 -6 -120 -18 -96 -16 -187 -47 -346 -118 -40 -18 -118 -68
-163 -104 -52 -42 -161 -153 -161 -164 0 -6 -4 -11 -10 -11 -5 0 -10 -7 -10
-15 0 -8 -4 -15 -9 -15 -17 0 -135 -203 -146 -250 0 -3 -10 -34 -22 -70 -77
-237 -82 -517 -13 -745 22 -72 24 -77 59 -157 12 -26 21 -52 21 -58 0 -5 3
-10 8 -10 4 0 13 -15 21 -32 8 -18 17 -35 21 -38 3 -3 22 -27 40 -55 19 -27
39 -55 45 -62 32 -36 137 -143 140 -143 1 0 45 -29 98 -64 53 -36 104 -66 114
-68 10 -2 20 -5 23 -8 15 -15 52 -30 60 -25 6 4 10 1 10 -4 0 -6 9 -11 19 -11
11 0 23 -5 26 -10 4 -6 11 -8 16 -4 5 3 15 1 22 -4 13 -10 134 -34 267 -53
132 -18 469 -7 594 20 54 12 117 29 140 37 22 8 46 16 52 17 43 9 204 132 204
155 0 5 7 15 15 22 8 7 17 27 21 46 3 19 11 34 16 34 6 0 6 6 -1 14 -11 14
-71 14 -92 0 -5 -3 -19 -7 -31 -9 -12 -3 -41 -13 -64 -24 -46 -22 -157 -61
-189 -67 -11 -2 -40 -7 -64 -13 -25 -5 -50 -7 -57 -4 -6 2 -14 1 -17 -4 -5 -9
-268 -8 -327 1 -34 5 -69 12 -80 16 -3 1 -9 3 -15 5 -5 1 -12 3 -15 4 -3 2
-13 4 -24 6 -37 7 -132 49 -173 77 -24 16 -43 25 -43 21 0 -4 -5 0 -11 10 -5
9 -14 17 -20 17 -28 0 -229 236 -229 269 0 5 -3 11 -7 13 -14 6 -44 68 -39 77
4 5 1 11 -4 13 -6 2 -12 10 -14 18 -2 8 -9 29 -15 45 -7 17 -14 37 -16 46 -2
8 -10 44 -19 80 -38 160 -46 345 -22 494 8 44 12 83 9 88 -2 4 0 7 5 7 5 0 12
19 16 42 4 23 12 48 18 55 6 7 7 13 3 13 -4 0 -3 6 3 13 6 6 11 15 11 20 0 4
14 34 30 66 42 82 139 198 206 246 115 82 261 145 351 150 17 1 35 4 40 7 28
15 346 -9 378 -30 6 -4 13 -7 16 -8 10 -2 47 -17 99 -41 138 -62 194 -130 195
-239 1 -35 3 -64 6 -64 3 0 6 -12 6 -27 1 -16 4 -39 7 -53 3 -14 6 -28 6 -32
1 -5 21 -8 46 -8 46 0 60 12 71 61 2 10 7 29 10 42 4 12 7 37 8 55 0 17 3 32
7 32 3 0 6 10 6 23 1 12 4 42 7 67 5 43 8 75 20 203 l6 58 -73 33 c-73 33
-143 58 -207 72 -61 13 -64 14 -95 20 -16 3 -45 6 -62 7 -18 0 -33 4 -33 7 0
4 -24 6 -52 5 -29 -1 -57 0 -62 3 -12 7 -296 9 -302 3z"/>
<path d="M3817 5610 c-9 -11 -17 -22 -17 -25 0 -3 -22 -51 -48 -108 -50 -104
-78 -176 -74 -189 1 -5 -3 -8 -10 -8 -6 0 -8 -3 -5 -7 4 -3 3 -11 -2 -17 -5
-6 -28 -60 -51 -121 -23 -60 -47 -121 -53 -135 -6 -14 -11 -28 -12 -32 -2 -5
-4 -11 -5 -15 -1 -5 -2 -11 -1 -15 0 -5 -3 -8 -7 -8 -5 0 -9 -6 -9 -12 0 -7
-35 -103 -78 -213 -42 -110 -78 -204 -80 -210 -2 -11 -20 -58 -35 -92 -23 -52
-31 -72 -63 -153 -36 -91 -48 -122 -49 -130 0 -3 -5 -14 -11 -25 -6 -11 -11
-22 -12 -25 0 -7 -31 -81 -66 -158 -16 -35 -29 -65 -29 -67 0 -2 -5 -16 -11
-32 -6 -15 -10 -30 -10 -33 0 -3 -7 -15 -15 -27 -8 -13 -13 -23 -10 -23 2 0
-17 -42 -43 -92 -53 -106 -77 -126 -160 -129 -36 -2 -61 -9 -72 -20 -10 -10
-15 -20 -12 -23 3 -2 1 -10 -3 -18 -11 -18 -11 -78 0 -85 22 -14 618 -15 641
-1 6 3 21 5 35 4 46 -4 59 10 57 61 -2 46 -3 48 -42 61 -22 7 -60 15 -85 18
-25 3 -62 13 -82 21 -37 15 -37 17 -33 62 7 74 49 236 67 259 6 6 7 12 3 12
-4 0 -3 6 2 13 5 6 23 47 39 90 l29 77 397 0 c219 0 398 -4 398 -8 0 -5 8 -17
18 -28 19 -20 36 -54 34 -66 -1 -5 3 -8 9 -8 5 0 8 -4 5 -9 -3 -5 1 -14 10
-21 8 -7 13 -19 10 -26 -3 -7 -1 -16 3 -19 19 -11 73 -210 75 -273 1 -75 4
-73 -106 -73 -66 0 -99 -13 -104 -40 -1 -8 -5 -27 -8 -44 -6 -32 14 -57 49
-63 27 -5 916 -8 936 -4 13 3 16 17 17 66 l1 63 -67 13 c-37 8 -70 13 -74 12
-5 -1 -8 2 -8 8 0 6 -3 10 -7 9 -22 -3 -52 16 -69 44 -10 18 -18 35 -16 40 1
4 -3 7 -9 7 -5 0 -8 4 -4 9 3 5 1 12 -5 16 -6 4 -8 11 -5 16 4 5 1 9 -4 9 -6
0 -10 3 -9 8 2 10 -6 30 -63 160 -27 62 -47 117 -44 123 4 5 2 9 -4 9 -6 0
-13 11 -17 25 -3 14 -10 25 -15 25 -5 0 -6 7 -3 15 4 8 2 15 -3 15 -5 0 -10 6
-10 13 0 6 -14 42 -32 79 -17 36 -31 69 -31 72 0 4 -9 26 -21 50 -11 25 -22
51 -23 58 -1 7 -10 27 -19 44 -9 17 -30 67 -47 110 -18 44 -43 104 -57 134
-14 30 -26 60 -27 65 -1 6 -9 25 -19 44 -9 19 -17 38 -17 43 0 5 -18 48 -40
94 -22 47 -38 90 -35 95 4 5 2 9 -3 9 -8 0 -42 71 -46 95 -1 6 -10 28 -20 50
-10 22 -30 72 -46 110 -16 39 -36 88 -46 110 -10 22 -18 42 -19 45 0 3 -6 15
-13 26 -6 12 -8 24 -5 28 3 3 1 6 -5 6 -7 0 -11 3 -10 8 0 4 -2 16 -7 27 -44
110 -58 141 -66 150 -12 12 -178 14 -186 2 -2 -4 -10 -3 -17 2 -9 7 -17 4 -29
-9z m7 -652 c15 -40 32 -82 36 -93 31 -69 58 -145 52 -145 -4 0 -2 -4 4 -8 6
-4 25 -45 43 -92 29 -74 87 -221 123 -307 6 -15 12 -32 14 -38 1 -5 5 -18 9
-27 7 -17 -12 -18 -309 -18 -258 0 -316 2 -316 13 0 8 9 40 21 73 12 32 21 65
22 72 0 6 4 12 9 12 4 0 8 7 8 15 0 19 107 294 121 311 5 6 9 16 7 20 -1 5 3
19 10 30 6 12 8 24 5 28 -3 3 -2 6 4 6 5 0 10 6 10 13 0 12 91 207 97 207 2 0
15 -33 30 -72z"/>
<path d="M5894 4871 c-3 -3 -9 -6 -12 -6 -33 -3 -123 -59 -144 -90 -26 -37
-36 -50 -65 -83 -17 -19 -30 -39 -27 -44 3 -4 -2 -8 -10 -8 -9 0 -16 -7 -16
-15 0 -9 -7 -27 -16 -40 -9 -14 -14 -25 -10 -25 3 0 1 -12 -5 -27 -11 -30 -13
-96 -4 -133 4 -14 8 -34 10 -45 6 -30 13 -59 16 -65 1 -3 3 -9 3 -15 1 -5 6
-19 12 -30 12 -25 12 -65 0 -64 -5 0 -12 -3 -15 -8 -3 -4 -26 -19 -51 -33 -54
-29 -57 -31 -128 -100 -55 -53 -97 -119 -106 -171 -2 -13 -5 -24 -6 -24 -3 0
-12 -71 -11 -90 1 -25 8 -80 11 -80 1 0 4 -13 6 -30 3 -16 8 -32 12 -35 4 -3
9 -16 10 -29 2 -13 10 -31 18 -38 8 -8 14 -18 14 -23 0 -14 121 -130 136 -130
8 0 14 -3 14 -8 0 -9 40 -27 105 -47 73 -22 233 -20 317 4 36 11 69 17 72 13
3 -3 6 1 6 8 0 7 3 10 6 7 4 -3 16 -1 28 5 11 7 24 13 29 14 4 1 9 3 12 4 3 1
8 3 13 4 13 3 87 40 92 46 15 19 45 17 97 -7 32 -14 60 -30 63 -34 5 -7 91
-47 105 -49 3 0 23 -7 46 -15 65 -23 179 -19 236 8 107 50 191 150 208 246 5
29 3 33 -12 26 -112 -45 -156 -58 -213 -60 -36 -2 -69 0 -75 3 -5 3 -21 7 -35
8 -29 4 -143 59 -159 77 -11 14 14 77 30 77 5 0 9 7 9 15 0 8 4 15 10 15 5 0
12 11 16 25 3 14 9 25 13 25 8 0 25 66 41 158 6 35 15 75 20 88 l10 24 137 -6
138 -7 19 69 c10 38 21 77 23 87 5 16 -16 17 -346 17 -232 0 -350 -3 -346 -10
3 -5 1 -10 -5 -10 -6 0 -8 -4 -5 -10 3 -5 1 -10 -4 -10 -6 0 -11 -9 -11 -21 0
-11 -4 -18 -8 -15 -4 2 -12 -11 -18 -30 -8 -24 -8 -37 -1 -41 6 -3 45 -6 87
-4 66 1 79 -1 95 -19 21 -24 24 -33 34 -110 7 -54 -9 -140 -30 -166 -5 -6 -6
-14 -2 -17 3 -4 1 -7 -5 -7 -7 0 -12 -7 -12 -15 0 -22 -15 -18 -46 10 -15 14
-30 25 -33 25 -11 0 -111 98 -111 109 0 6 -4 10 -8 8 -4 -1 -24 16 -43 38 -18
22 -39 45 -45 50 -19 17 -118 157 -142 203 -19 35 -21 42 -8 42 9 0 16 4 16 9
0 5 8 12 18 15 9 3 29 17 45 31 15 14 27 23 27 19 0 -12 156 149 171 176 7 14
14 27 14 30 0 3 9 20 19 39 33 62 21 180 -24 234 -42 51 -50 59 -50 52 0 -4
-9 0 -19 9 -11 10 -24 15 -30 12 -5 -3 -11 -1 -13 6 -4 12 -192 20 -204 9z
m94 -155 c18 -9 30 -21 27 -26 -4 -6 -2 -10 4 -10 15 0 32 -63 27 -106 -7 -57
-19 -94 -48 -138 -19 -28 -80 -86 -90 -86 -5 0 -16 -7 -24 -15 -9 -8 -19 -15
-23 -15 -8 0 -50 102 -52 125 -1 6 -6 21 -11 35 -14 36 -17 121 -5 150 5 14
11 31 13 37 1 7 9 20 18 28 44 44 106 52 164 21z m-187 -783 c63 -81 142 -176
176 -212 34 -36 60 -69 57 -73 -3 -4 2 -8 10 -8 9 0 34 -23 57 -52 l41 -52
-26 -9 c-14 -5 -26 -12 -26 -16 0 -5 -27 -14 -60 -21 -119 -25 -233 13 -329
109 -114 115 -151 259 -96 374 14 32 31 57 37 57 6 0 9 3 5 6 -6 6 23 44 34
44 3 0 57 -66 120 -147z"/>
<path d="M2630 2772 c-8 -3 -26 -9 -40 -14 -14 -5 -25 -8 -25 -6 0 1 -16 -8
-35 -21 -105 -72 -150 -159 -150 -293 0 -70 4 -89 31 -144 42 -85 80 -118 192
-163 47 -19 142 -14 195 11 26 12 53 28 59 34 7 7 24 21 37 31 33 26 60 80 44
89 -6 4 -14 2 -16 -5 -2 -7 -15 -24 -28 -38 -13 -14 -24 -30 -24 -35 0 -5 -4
-7 -9 -4 -5 3 -11 -1 -15 -9 -3 -8 -12 -15 -21 -15 -8 0 -15 -4 -15 -10 0 -5
-11 -10 -24 -10 -14 0 -27 -4 -30 -9 -6 -10 -99 8 -128 25 -56 32 -138 140
-123 164 3 5 1 11 -4 15 -5 3 -8 14 -6 25 2 11 0 20 -4 20 -4 0 -7 21 -6 48 2
26 4 47 5 47 1 0 3 11 5 25 19 149 150 254 255 205 67 -32 80 -40 80 -49 0 -5
8 -16 18 -25 9 -9 27 -34 39 -56 25 -45 50 -54 45 -15 -2 14 -4 55 -5 92 -3
79 -16 101 -40 64 l-17 -25 -56 26 c-53 24 -148 37 -184 25z"/>
<path d="M3305 2770 c-3 -5 -12 -7 -19 -4 -26 10 -125 -37 -175 -84 -71 -67
-105 -145 -105 -242 0 -77 20 -147 51 -182 9 -10 13 -18 9 -18 -4 0 16 -20 45
-45 28 -24 54 -44 58 -43 3 1 20 -5 36 -12 17 -8 64 -14 105 -14 60 0 85 5
125 24 107 53 192 173 201 284 13 165 -114 319 -279 339 -25 3 -49 2 -52 -3z
m111 -60 c27 -26 89 -110 80 -110 -3 0 1 -15 8 -32 7 -18 12 -46 11 -61 -1
-15 2 -30 6 -33 4 -2 5 -14 2 -27 -2 -12 -5 -39 -6 -59 -1 -21 -5 -38 -10 -38
-4 0 -6 -4 -2 -9 3 -5 1 -12 -5 -16 -6 -4 -8 -10 -5 -14 2 -4 -10 -32 -28 -61
-50 -83 -122 -110 -212 -80 -70 23 -123 117 -132 235 -6 77 -6 77 1 120 12 86
51 152 116 198 39 27 141 19 176 -13z"/>
<path d="M8008 2775 c-2 -2 -23 -6 -47 -9 -24 -3 -66 -20 -93 -38 -54 -34
-118 -96 -118 -114 0 -6 -7 -17 -15 -24 -8 -6 -14 -15 -13 -18 0 -4 -1 -10 -2
-14 -1 -5 -3 -11 -4 -15 -1 -5 -6 -24 -11 -43 -9 -40 -9 -81 1 -125 3 -16 7
-36 7 -42 0 -7 4 -13 9 -13 4 0 7 -3 6 -7 -6 -32 53 -105 117 -146 205 -129
486 40 487 293 0 25 -9 74 -17 95 -4 11 -12 32 -17 48 -15 38 -102 122 -152
146 -36 17 -129 34 -138 26z m89 -54 c28 -17 103 -111 88 -111 -3 0 0 -10 7
-22 7 -13 13 -25 13 -28 13 -75 15 -129 5 -177 -15 -70 -49 -153 -63 -153 -6
0 -7 -3 -4 -6 9 -9 -31 -39 -73 -56 -37 -15 -140 -6 -140 13 0 5 -5 9 -10 9
-16 0 -60 50 -66 77 -4 13 -10 23 -14 23 -4 0 -7 6 -7 13 1 6 -4 45 -12 84
-14 80 -9 129 21 211 20 52 65 110 103 130 33 18 116 14 152 -7z"/>
<path d="M9340 2770 c0 -6 -15 -43 -34 -83 -19 -40 -46 -106 -60 -147 -15 -41
-29 -82 -33 -90 -3 -8 -5 -18 -5 -22 1 -5 -2 -8 -6 -8 -5 0 -9 -6 -9 -13 0
-28 -74 -203 -92 -219 -39 -34 -59 -39 -99 -28 -54 14 -85 53 -97 121 -11 66
-27 98 -61 129 -19 16 -39 30 -44 30 -25 0 -5 17 49 42 49 23 61 33 66 58 4
16 10 30 15 30 5 0 7 12 5 28 -2 15 -4 36 -4 48 -1 31 -61 94 -102 108 -45 16
-424 16 -424 1 0 -5 11 -12 25 -13 14 -2 34 -13 44 -24 18 -19 19 -39 20 -269
1 -270 0 -277 -54 -288 -17 -3 -31 -10 -31 -16 1 -6 55 -11 137 -13 104 -2
135 0 132 10 -3 7 -19 16 -37 20 -39 11 -49 34 -51 119 -4 152 -3 157 29 164
53 11 161 -31 145 -56 -3 -5 -1 -9 4 -9 6 0 13 -17 17 -37 5 -21 10 -45 12
-53 2 -8 5 -32 8 -52 7 -64 29 -95 72 -101 63 -10 385 -8 378 2 -3 5 -21 15
-40 21 -41 13 -53 44 -36 91 6 17 8 35 5 40 -3 5 -1 9 5 9 6 0 13 16 17 35 5
27 11 35 28 36 134 6 188 3 200 -11 7 -8 23 -48 36 -89 26 -83 22 -100 -29
-115 -62 -18 -28 -26 109 -26 77 0 140 2 140 5 0 6 -49 28 -64 29 -8 1 -43 64
-65 116 -10 27 -50 139 -55 155 -2 6 -6 17 -9 25 -4 8 -20 52 -36 97 -17 46
-40 102 -51 125 -11 23 -20 48 -20 55 0 7 -4 13 -10 13 -5 0 -10 7 -10 15 0 8
-7 15 -15 15 -8 0 -15 -5 -15 -10z m-611 -31 c105 -24 133 -142 51 -220 -20
-20 -44 -36 -51 -37 -8 -1 -41 -3 -74 -5 l-60 -3 -5 65 c-3 37 -4 96 -2 132 4
66 4 66 34 67 16 0 33 3 36 6 7 8 20 7 71 -5z m616 -132 c4 -17 10 -34 14 -37
7 -6 26 -54 46 -117 l13 -43 -93 0 c-100 0 -99 -1 -77 53 7 16 12 31 12 33 0
19 63 153 70 149 5 -3 12 -20 15 -38z"/>
<path d="M4575 2756 c-88 -34 -126 -81 -127 -157 0 -30 5 -55 11 -57 6 -2 11
-10 11 -17 0 -21 62 -62 136 -90 141 -53 186 -85 200 -142 17 -66 -52 -143
-129 -143 -80 0 -137 43 -188 143 -16 32 -34 55 -38 52 -5 -3 -7 -33 -4 -67 3
-35 5 -80 5 -101 0 -46 15 -57 37 -28 l16 21 42 -21 c65 -32 148 -36 203 -10
56 26 108 74 116 106 3 14 9 25 13 25 12 0 6 87 -7 102 -6 8 -10 17 -7 19 2 3
-6 16 -18 30 -25 29 -87 74 -87 63 0 -3 -6 -2 -12 3 -7 6 -38 18 -68 27 -102
32 -139 56 -146 92 -9 51 3 87 39 112 70 47 169 12 224 -80 34 -58 53 -62 48
-10 -5 47 -14 102 -22 126 -5 19 -6 19 -23 -2 -17 -20 -20 -21 -49 -6 -39 20
-138 26 -176 10z"/>
<path d="M4956 2761 c-9 -15 -27 -142 -21 -152 9 -14 25 -11 25 4 0 8 17 32
39 55 42 44 88 62 163 62 l46 0 5 -72 c2 -40 4 -159 3 -264 -1 -213 -2 -217
-67 -234 -79 -22 -40 -31 121 -28 98 2 159 7 158 13 -2 5 -12 11 -23 12 -31 5
-75 25 -75 34 0 17 -2 24 -9 34 -4 6 -7 120 -6 255 l0 245 70 -3 c92 -4 128
-22 170 -86 30 -46 43 -33 39 37 -2 34 -4 70 -5 80 0 15 -8 16 -67 12 -80 -7
-388 -7 -489 -1 -40 3 -75 1 -77 -3z"/>
<path d="M5656 2762 c-13 -12 -5 -22 17 -22 36 0 58 -22 64 -65 10 -71 10
-428 1 -462 -9 -35 -33 -53 -67 -53 -12 0 -21 -7 -21 -15 0 -13 22 -15 140
-15 143 0 173 9 101 31 -49 15 -61 50 -61 178 0 88 1 92 26 103 30 14 107 -3
137 -30 22 -19 49 -80 42 -92 -3 -5 -1 -11 3 -14 5 -3 9 -18 10 -33 5 -116 41
-147 163 -141 65 3 78 18 27 31 -53 14 -72 48 -102 179 -6 27 -56 85 -91 104
-17 10 -14 13 31 28 130 43 141 206 19 270 -36 19 -58 21 -237 22 -108 1 -199
-1 -202 -4z m317 -21 c40 -9 90 -48 82 -62 -3 -4 0 -9 5 -11 13 -4 21 -76 9
-84 -5 -3 -7 -10 -3 -15 8 -14 -66 -80 -96 -87 -32 -7 -120 -8 -131 -1 -9 5
-10 40 -6 130 4 68 7 125 7 126 0 1 17 4 38 6 20 2 42 4 47 5 6 1 27 -2 48 -7z"/>
<path d="M6266 2761 c-22 -8 -15 -15 27 -25 46 -11 55 -49 55 -236 0 -204 5
-252 31 -288 30 -43 48 -55 110 -74 69 -22 132 -23 197 -3 27 8 52 14 57 14 4
1 20 12 35 26 15 14 30 25 33 25 6 0 19 35 16 43 0 1 5 13 13 26 7 13 13 48
13 78 0 29 2 53 6 53 3 0 6 62 6 139 1 151 11 185 60 197 14 3 25 12 25 18 0
9 -28 12 -107 11 -60 -1 -111 -2 -115 -3 -16 -4 -7 -22 10 -22 18 -1 74 -29
57 -30 -5 0 -4 -4 3 -8 20 -13 25 -56 25 -192 -1 -232 -15 -285 -84 -318 -77
-37 -193 -27 -246 21 -37 34 -45 78 -46 270 -1 187 4 215 42 244 9 7 24 13 34
13 9 0 17 6 17 13 0 11 -29 14 -127 14 -71 0 -137 -3 -147 -6z"/>
<path d="M7015 2762 c-12 -9 -15 -22 -20 -82 -2 -25 -5 -51 -7 -59 -7 -29 19
-18 47 22 40 56 103 87 175 87 l56 0 -1 -47 c-1 -27 1 -52 4 -58 3 -5 6 -95 6
-200 1 -200 -5 -233 -45 -255 -10 -5 -30 -11 -45 -12 -14 -1 -24 -7 -22 -13 5
-14 317 -14 316 0 -1 6 -20 15 -43 20 -61 15 -65 35 -65 324 l-1 244 72 -8
c40 -3 88 -15 108 -25 19 -11 32 -19 28 -20 -4 0 4 -11 17 -25 14 -13 25 -29
25 -35 0 -5 7 -10 15 -10 16 0 21 68 9 128 l-6 31 -67 -5 c-86 -6 -397 -6
-481 1 -36 2 -69 1 -75 -3z"/>
<path d="M3680 2754 c0 -2 17 -12 38 -24 20 -12 49 -37 62 -57 26 -38 27 -47
32 -353 1 -80 -6 -128 -20 -142 -5 -5 -28 -12 -50 -15 -29 -4 -39 -9 -35 -19
4 -11 32 -14 127 -14 136 0 170 10 104 29 -24 8 -45 12 -46 10 -8 -8 -33 54
-38 94 -4 23 -7 111 -8 194 l-2 153 30 -38 c17 -20 40 -46 51 -58 11 -11 40
-45 65 -75 52 -63 74 -88 115 -134 17 -18 46 -52 65 -75 60 -72 93 -102 99
-91 4 6 7 47 6 91 0 44 2 80 5 80 3 0 6 80 6 178 2 228 2 225 64 242 22 6 40
14 40 19 0 4 -58 7 -130 8 -102 0 -130 -3 -130 -14 0 -7 9 -13 21 -13 36 0 74
-26 79 -55 1 -5 5 -14 10 -20 4 -5 7 -85 7 -177 l0 -167 -26 18 c-14 11 -33
29 -41 41 -16 24 -24 32 -120 140 -36 41 -71 82 -78 92 -8 10 -25 31 -39 46
-14 15 -41 46 -59 68 l-34 42 -85 -1 c-47 0 -85 -2 -85 -3z"/>
</g>
</svg>
